HIERARCHY
ROOT Hips
{
	OFFSET 0.00000 0.00000 0.00000
	CHANNELS 6 Xposition Yposition Zposition Zrotation Yrotation Xrotation 
	JOINT LHipJoint
	{
		OFFSET 0 0 0
		CHANNELS 3 Zrotation Yrotation Xrotation
		JOINT LeftHip
		{
			OFFSET 1.36306 -1.79463 0.83929
			CHANNELS 3 Zrotation Yrotation Xrotation
			JOINT LeftKnee
			{
				OFFSET 2.44811 -6.72613 0.00000
				CHANNELS 3 Zrotation Yrotation Xrotation
				JOINT LeftAnkle
				{
					OFFSET 2.56220 -7.03959 0.00000
					CHANNELS 3 Zrotation Yrotation Xrotation
					JOINT LeftToe
					{
						OFFSET 0.15764 -0.43311 2.32255
						CHANNELS 3 Zrotation Yrotation Xrotation
						End Site
						{
							OFFSET 0.00000 -0.00000 1.18966
						}
					}
				}
			}
		}
	}
	JOINT RHipJoint
	{
		OFFSET 0 0 0
		CHANNELS 3 Zrotation Yrotation Xrotation
		JOINT RightHip
		{
			OFFSET -1.30552 -1.79463 0.83929
			CHANNELS 3 Zrotation Yrotation Xrotation
			JOINT RightKnee
			{
				OFFSET -2.54253 -6.98555 0.00000
				CHANNELS 3 Zrotation Yrotation Xrotation
				JOINT RightAnkle
				{
					OFFSET -2.56826 -7.05623 0.00000
					CHANNELS 3 Zrotation Yrotation Xrotation
					JOINT RightToe
					{
						OFFSET -0.16473 -0.45259 2.36315
						CHANNELS 3 Zrotation Yrotation Xrotation
						End Site
						{
							OFFSET -0.00000 -0.00000 1.21082
						}
					}
				}
			}
		}
	}
	JOINT lowerback
	{
		OFFSET 0 0 0
		CHANNELS 3 Zrotation Yrotation Xrotation
		JOINT Chest
		{
			OFFSET 0.02827 2.03559 -0.19338
			CHANNELS 3 Zrotation Yrotation Xrotation
			JOINT Chest2
			{
				OFFSET 0.05672 2.04885 -0.04275
				CHANNELS 3 Zrotation Yrotation Xrotation
				JOINT lowerneck
				{
					OFFSET 0 0 0
					CHANNELS 3 Zrotation Yrotation Xrotation
					JOINT Neck
					{
						OFFSET -0.05417 1.74624 0.17202
						CHANNELS 3 Zrotation Yrotation Xrotation
						JOINT Head
						{
							OFFSET 0.10407 1.76136 -0.12397
							CHANNELS 3 Zrotation Yrotation Xrotation
							End Site
							{
								OFFSET 0.03720 1.77044 -0.06241
							}
						}
					}
				}
				JOINT LeftCollar
				{
					OFFSET 0 0 0
					CHANNELS 3 Zrotation Yrotation Xrotation
					JOINT LeftShoulder
					{
						OFFSET 3.36241 1.20089 -0.31121
CHANNELS 3 Zrotation Xrotation Yrotation
						JOINT LeftElbow
						{
OFFSET 0 -4.983000 -0.000000
CHANNELS 3 Zrotation Xrotation Yrotation
							JOINT LeftWrist
							{
OFFSET 0 -3.483560 -0.000000
CHANNELS 3 Zrotation Xrotation Yrotation
								JOINT lhand
								{
									OFFSET 0 0 0
CHANNELS 3 Zrotation Xrotation Yrotation
									JOINT LFingers
									{
OFFSET 0 -0.715260 -0.000000
CHANNELS 3 Zrotation Xrotation Yrotation
										End Site
										{
OFFSET 0 -0.576660 -0.000000
										}
									}
								}
								JOINT LThumb
								{
OFFSET 0 0.000000 0.000000
CHANNELS 3 Zrotation Xrotation Yrotation
									End Site
									{
OFFSET 0 -0.585470 0.585470
									}
								}
							}
						}
					}
				}
				JOINT RightCollar
				{
					OFFSET 0 0 0
					CHANNELS 3 Zrotation Yrotation Xrotation
					JOINT RightShoulder
					{
						OFFSET -3.13660 1.37405 -0.40465
CHANNELS 3 Zrotation Xrotation Yrotation
						JOINT RightElbow
						{
OFFSET 0 -5.241900 -0.000000
CHANNELS 3 Zrotation Xrotation Yrotation
							JOINT RightWrist
							{
OFFSET 0 -3.444170 -0.000000
CHANNELS 3 Zrotation Xrotation Yrotation
								JOINT rhand
								{
									OFFSET 0 0 0
CHANNELS 3 Zrotation Xrotation Yrotation
									JOINT RFingers
									{
OFFSET 0 -0.622530 -0.000000
CHANNELS 3 Zrotation Xrotation Yrotation
										End Site
										{
OFFSET 0 -0.501900 -0.000000
										}
									}
								}
								JOINT RThumb
								{
OFFSET 0 0.000000 0.000000
CHANNELS 3 Zrotation Xrotation Yrotation
									End Site
									{
OFFSET 0 -0.509560 0.509560
									}
								}
							}
						}
					}
				}
			}
		}
	}
}
MOTION
Frames: 10
Frame Time: 0.008333333333333333
17.302200 17.857600 14.014900 -30.300600 -83.068900 34.054800 0.000000 0.000000 0.000000 -11.282400 -5.931200 -9.204500 2.480000 9.801500 28.336300 1.228500 -4.608500 -19.934100 1.041000 -6.489000 -18.209900 0.000000 0.000000 0.000000 24.725700 2.389800 -10.543200 -2.981300 -10.664800 31.157400 -1.347300 -10.929400 -28.327600 -0.918100 -6.104800 17.088800 0.470700 -0.011100 5.322900 4.960200 0.026200 0.909600 4.871600 -0.019000 -2.051400 -4.065400 -3.761100 -5.740200 7.215600 -5.079500 3.036700 2.871500 -2.407900 2.315700 0.000000 -0.000000 0.000000 -0.029500 -7.458100 -7.952800 8.113300 -13.736300 0.978800 18.981200 13.116600 3.462300 0.000000 0.000000 0.000000 -7.125000 0.000000 0.000000 -5.798200 26.311000 -2.640200 0.000000 -0.000000 0.000000 -3.566700 -12.072400 -28.318800 -5.224000 -8.961800 -0.409700 -20.413300 29.093100 31.396400 0.000000 0.000000 0.000000 7.125000 0.000000 -0.000000 13.761700 62.535800 -5.923400
17.452264 17.899168 14.239737 -25.993934 -83.086983 30.539672 0.000000 0.000000 0.000000 -12.643402 -6.447961 -10.704812 2.491268 9.821873 28.401996 1.134981 -4.282759 -19.169980 1.124478 -6.735552 -18.934334 0.000000 0.000000 0.000000 23.146643 2.012521 -12.359360 -3.037624 -10.755683 31.460229 -1.183524 -10.781097 -27.037590 -0.808427 -5.736688 16.022663 0.734133 0.754033 5.530478 5.076467 1.066148 0.951955 4.768029 0.498493 -2.205845 -5.414848 -4.710999 -7.366839 7.631768 -6.211322 3.219681 3.188750 -2.942174 2.832823 0.000000 0.000000 0.000000 1.124915 -5.626095 -8.232091 7.930421 -13.440034 0.935961 14.226234 15.070734 2.114396 0.000000 0.000000 0.000000 -7.125000 0.000000 0.000000 -9.500217 27.756125 -4.033377 0.000000 0.000000 0.000000 -4.219894 -5.361134 -34.641021 -5.325533 -9.132071 -0.426635 -46.529058 50.233491 36.405336 0.000000 0.000000 0.000000 7.125000 0.000000 0.000000 -27.084394 75.650809 20.144840
17.608846 17.892032 14.464406 -24.685492 -82.390179 29.082248 0.000000 0.000000 0.000000 -13.184405 -6.622233 -11.359421 2.520676 9.875295 28.573908 1.046163 -5.464005 -18.281169 0.870015 -5.947233 -16.631341 0.000000 0.000000 0.000000 22.484416 1.905066 -13.279984 -3.226432 -11.052933 32.458471 -0.922378 -12.381482 -26.487263 -0.425460 -4.178199 11.579698 1.799067 1.068572 6.681632 5.141015 1.561509 1.411305 4.181827 0.726930 -2.385304 -5.132299 -5.235553 -7.622503 7.424469 -6.821708 1.271968 3.024110 -3.265685 2.242660 0.000000 0.000000 0.000000 2.030342 -3.146570 -10.285804 9.565550 -16.056423 1.352971 11.056043 11.186779 2.210452 0.000000 0.000000 0.000000 -7.125000 0.000000 0.000000 -11.904644 27.660578 -5.120302 0.000000 0.000000 0.000000 -4.737751 2.422802 -26.958453 -6.118155 -10.459008 -0.560533 -25.830326 38.329060 34.519676 0.000000 0.000000 0.000000 7.125000 0.000000 0.000000 9.780990 67.130349 -5.222203
17.694060 17.869838 14.714940 -16.394824 -82.406101 20.070831 0.000000 0.000000 0.000000 -15.219707 -5.067964 -11.698210 2.632640 10.075148 29.220313 1.055033 -7.580277 -18.359139 0.721574 -5.427787 -15.132883 0.000000 0.000000 0.000000 20.302583 1.033022 -13.167040 -3.352104 -11.244293 33.108093 -0.956713 -12.021724 -26.418400 -0.335584 -3.722615 10.297591 1.843640 0.886381 7.105221 4.782654 1.285990 2.176064 3.803180 0.580710 -1.804181 -4.704004 -5.156902 -6.767951 7.073759 -6.700321 -0.279653 2.855610 -3.245797 1.530114 0.000000 0.000000 0.000000 2.534401 0.940045 -11.991715 12.487625 -20.531770 2.270576 12.086844 2.554925 4.157224 0.000000 0.000000 0.000000 -7.125000 0.000000 0.000000 -10.947923 25.707659 -5.205384 0.000000 0.000000 0.000000 -5.524818 7.460075 -18.615153 -6.404073 -10.934325 -0.613719 -15.759548 27.208957 24.699798 0.000000 0.000000 0.000000 7.125000 0.000000 0.000000 14.639591 54.921511 -3.624085
17.791798 17.839970 14.954442 -6.674956 -83.691952 10.606974 0.000000 0.000000 0.000000 -17.601811 -2.714380 -12.689598 2.543774 9.917018 28.708456 0.975465 -9.392396 -17.846106 0.604696 -4.977147 -13.843508 0.000000 0.000000 0.000000 17.589566 1.040066 -14.593172 -3.635020 -11.658149 34.533186 -0.821660 -11.880987 -25.227991 -0.088248 -1.909611 5.255979 0.784031 0.768057 6.923750 4.471804 1.042693 2.387771 4.100726 0.461651 -1.485588 -4.950801 -4.876182 -6.460656 7.012364 -6.323145 -0.008626 2.902863 -3.059888 1.547562 0.000000 0.000000 0.000000 1.674368 4.177664 -9.483764 14.174030 -22.982845 2.895723 15.812744 -3.567257 7.670278 0.000000 0.000000 0.000000 -7.125000 0.000000 0.000000 -8.007788 22.037173 -4.458569 0.000000 0.000000 0.000000 -6.764457 11.079576 -6.453026 -8.296876 -14.032921 -1.023027 -13.146931 11.123494 26.883074 0.000000 0.000000 0.000000 7.125000 0.000000 0.000000 18.506164 56.507432 -5.350317
17.882099 17.835299 15.157681 0.509951 -84.470652 3.487257 0.000000 0.000000 0.000000 -19.184512 -1.132799 -13.386687 2.496645 9.831891 28.433970 0.902950 -10.773402 -17.465932 0.498251 -4.524395 -12.556913 0.000000 0.000000 0.000000 15.760846 1.747606 -15.133487 -3.773437 -11.852672 35.212765 -0.950120 -10.928689 -25.386177 -0.179428 -2.727512 7.521130 0.151809 0.405147 6.824166 4.122303 0.510713 2.540299 4.137307 0.195607 -1.240354 -4.453859 -4.438799 -6.441015 6.507456 -5.773935 0.312156 2.663780 -2.789689 1.572647 0.000000 0.000000 0.000000 1.031248 5.507600 -5.374786 13.759665 -22.389854 2.735971 19.051257 -5.725259 8.402831 0.000000 0.000000 0.000000 -7.125000 0.000000 0.000000 -5.648318 21.115869 -3.249751 0.000000 0.000000 0.000000 -7.457279 11.451170 -4.638893 -8.804545 -14.848057 -1.149753 -16.485594 9.596159 28.145883 0.000000 0.000000 0.000000 7.125000 0.000000 0.000000 15.839644 58.429625 -5.291311
17.967517 17.843603 15.335481 -2.409689 -85.951585 6.375666 0.000000 0.000000 0.000000 -19.769223 -1.076370 -13.581044 2.525655 9.884393 28.603023 0.938392 -9.350731 -17.518628 0.490108 -4.488327 -12.454704 0.000000 0.000000 0.000000 15.259746 2.871456 -15.152538 -3.722015 -11.780944 34.961477 -0.853439 -10.952935 -24.627448 -0.082932 -1.855982 5.107932 0.070685 0.212133 7.070017 4.182156 0.262005 2.353566 4.267494 0.075297 -1.552509 -3.610058 -4.359349 -6.016466 5.665621 -5.720148 0.501224 2.238781 -2.777612 1.488296 0.000000 0.000000 0.000000 0.437710 5.291817 -0.460208 11.480664 -19.020810 1.929934 18.549603 -1.287557 7.587438 0.000000 0.000000 0.000000 -7.125000 0.000000 0.000000 -6.018412 21.997562 -3.344113 0.000000 0.000000 0.000000 -8.279998 9.176939 -12.562660 -7.698950 -13.063693 -0.882854 -18.754221 18.028021 27.540417 0.000000 0.000000 0.000000 7.125000 0.000000 0.000000 13.061252 58.342311 -4.310078
18.058252 17.852047 15.487146 -20.711127 -88.299208 24.646325 0.000000 0.000000 0.000000 -20.071480 -1.640033 -13.228295 2.493624 9.826284 28.416100 0.966268 -6.592018 -17.539303 0.341526 -3.751464 -10.378975 0.000000 0.000000 0.000000 15.035294 4.775719 -15.067493 -3.670160 -11.708027 34.706791 -0.862809 -10.148793 -23.989968 -0.124833 -2.277617 6.273421 -0.167352 0.418871 7.234750 4.183433 0.521611 2.361442 4.382530 0.204620 -1.657146 -4.174560 -4.486100 -6.133542 6.494260 -5.866360 0.253221 2.609873 -2.841834 1.492536 0.000000 0.000000 0.000000 0.531564 3.434073 4.424932 8.684676 -14.655849 1.119623 15.460140 8.562850 6.086062 0.000000 0.000000 0.000000 -7.125000 0.000000 0.000000 -8.324242 23.677523 -4.324193 0.000000 0.000000 0.000000 -8.401205 5.587498 -20.009531 -7.534796 -12.796039 -0.846108 -20.657484 23.988457 30.046956 0.000000 0.000000 0.000000 7.125000 0.000000 0.000000 12.532332 61.270023 -5.010161
18.127021 17.867600 15.585552 71.706148 -93.672604 -67.402060 0.000000 0.000000 0.000000 -17.273041 -0.601104 -14.888320 2.770876 10.314509 30.001389 1.052363 -5.434192 -18.338736 0.328495 -3.683494 -10.187847 0.000000 0.000000 0.000000 17.787070 6.246796 -14.997283 -3.353038 -11.245697 33.112900 -0.674647 -9.896563 -22.103815 -0.049503 -1.434243 3.944572 1.668677 0.456600 6.903014 4.820793 0.674682 2.204680 3.995478 0.267720 -1.631647 -4.736821 -4.316738 -6.479541 7.138483 -5.642109 0.958169 2.933590 -2.707947 1.821008 0.000000 0.000000 0.000000 0.707548 2.490619 3.222922 7.746257 -13.140668 0.893624 10.608819 15.892392 3.514888 0.000000 0.000000 0.000000 -7.125000 0.000000 0.000000 -12.110146 26.361564 -5.591143 0.000000 0.000000 0.000000 -8.202881 2.198126 -16.024353 -8.123967 -13.753559 -0.981434 -23.526274 22.209679 32.374698 0.000000 0.000000 0.000000 7.125000 0.000000 0.000000 10.862596 64.327260 -5.118883
18.203272 17.868765 15.686505 25.159007 -94.726329 -21.221142 0.000000 0.000000 0.000000 -19.494778 0.738693 -14.678320 2.694619 10.183546 29.573088 1.055218 -3.738573 -18.526745 0.294351 -3.487689 -9.639799 0.000000 0.000000 0.000000 15.486584 6.288754 -15.895130 -3.448049 -11.387262 33.597442 -0.740282 -7.438425 -20.613555 -0.016846 -0.837139 2.300784 -0.860016 0.693845 7.267665 4.069951 0.837040 2.358103 4.630470 0.362663 -1.711483 -6.422518 -5.104389 -5.768056 9.616759 -6.686239 0.527277 4.084222 -3.220061 1.816691 0.000000 0.000000 0.000000 1.289584 1.371878 -3.304030 8.500418 -14.360711 1.072817 4.733082 14.484118 2.833656 0.000000 0.000000 0.000000 -7.125000 0.000000 0.000000 -16.568266 27.016293 -7.532049 0.000000 0.000000 0.000000 -7.345472 -0.778398 -6.709100 -10.398760 -17.359947 -1.592743 -21.764609 10.699894 31.663136 0.000000 0.000000 0.000000 7.125000 0.000000 0.000000 12.440271 63.150686 -5.530366
